{
  "accessors": [
    {
      "bufferView": 2,
      "componentType": 5126,
      "count": 65532,
      "max": [
        2263.413818359375,
        133.05567932128906,
        2180.724853515625
      ],
      "min": [
        -2260.988525390625,
        -131.2261505126953,
        -2116.0302734375
      ],
      "type": "VEC3"
    },
    {
      "bufferView": 2,
      "byteOffset": 786384,
      "componentType": 5126,
      "count": 65532,
      "max": [
        0.9999997019767761,
        1.0,
        0.9999997615814209
      ],
      "min": [
        -0.9999924302101135,
        -1.0,
        -0.9999997019767761
      ],
      "type": "VEC3"
    },
    {
      "bufferView": 1,
      "componentType": 5126,
      "count": 65532,
      "max": [
        1.0000022649765015,
        1.0000020265579224
      ],
      "min": [
        -2.3926334051793674e-06,
        -8.700989383214619e-06
      ],
      "type": "VEC2"
    },
    {
      "bufferView": 0,
      "componentType": 5125,
      "count": 104328,
      "type": "SCALAR"
    },
    {
      "bufferView": 2,
      "byteOffset": 1572768,
      "componentType": 5126,
      "count": 65534,
      "max": [
        1488.72509765625,
        127.6380844116211,
        2146.4775390625
      ],
      "min": [
        1072.4854736328125,
        -87.53759002685547,
        -903.9622802734375
      ],
      "type": "VEC3"
    },
    {
      "bufferView": 2,
      "byteOffset": 2359176,
      "componentType": 5126,
      "count": 65534,
      "max": [
        0.9999397397041321,
        1.0,
        0.9999978542327881
      ],
      "min": [
        -0.9999392628669739,
        -1.0,
        -0.9999977350234985
      ],
      "type": "VEC3"
    },
    {
      "bufferView": 1,
      "byteOffset": 524256,
      "componentType": 5126,
      "count": 65534,
      "max": [
        1.0000003576278687,
        1.0000009536743164
      ],
      "min": [
        -1.7038108808264951e-06,
        -5.604831130767707e-06
      ],
      "type": "VEC2"
    },
    {
      "bufferView": 0,
      "byteOffset": 417312,
      "componentType": 5125,
      "count": 98457,
      "type": "SCALAR"
    },
    {
      "bufferView": 2,
      "byteOffset": 3145584,
      "componentType": 5126,
      "count": 65532,
      "max": [
        1177.811767578125,
        105.38265228271484,
        2177.54443359375
      ],
      "min": [
        -737.7938842773438,
        -131.76358032226563,
        -1512.297119140625
      ],
      "type": "VEC3"
    },
    {
      "bufferView": 2,
      "byteOffset": 3931968,
      "componentType": 5126,
      "count": 65532,
      "max": [
        0.9999995231628418,
        1.0,
        0.9999997615814209
      ],
      "min": [
        -0.9999995231628418,
        -1.0,
        -0.9999997019767761
      ],
      "type": "VEC3"
    },
    {
      "bufferView": 1,
      "byteOffset": 1048528,
      "componentType": 5126,
      "count": 65532,
      "max": [
        1.0000009536743164,
        1.000002145767212
      ],
      "min": [
        -2.3926334051793674e-06,
        -8.700989383214619e-06
      ],
      "type": "VEC2"
    },
    {
      "bufferView": 0,
      "byteOffset": 811140,
      "componentType": 5125,
      "count": 100026,
      "type": "SCALAR"
    },
    {
      "bufferView": 2,
      "byteOffset": 4718352,
      "componentType": 5126,
      "count": 65533,
      "max": [
        -593.0325927734375,
        -45.33650588989258,
        1876.5870361328125
      ],
      "min": [
        -1259.9158935546875,
        -130.678955078125,
        -1488.60498046875
      ],
      "type": "VEC3"
    },
    {
      "bufferView": 2,
      "byteOffset": 5504748,
      "componentType": 5126,
      "count": 65533,
      "max": [
        0.9999995231628418,
        1.0,
        0.9999995231628418
      ],
      "min": [
        -0.9999997019767761,
        -1.0,
        -0.9999995231628418
      ],
      "type": "VEC3"
    },
    {
      "bufferView": 1,
      "byteOffset": 1572784,
      "componentType": 5126,
      "count": 65533,
      "max": [
        1.0000029802322388,
        1.0000035762786865
      ],
      "min": [
        -2.0436846170923673e-06,
        -8.700989383214619e-06
      ],
      "type": "VEC2"
    },
    {
      "bufferView": 0,
      "byteOffset": 1211244,
      "componentType": 5125,
      "count": 99780,
      "type": "SCALAR"
    },
    {
      "bufferView": 2,
      "byteOffset": 6291144,
      "componentType": 5126,
      "count": 65533,
      "max": [
        2260.813232421875,
        133.05567932128906,
        2217.740234375
      ],
      "min": [
        -2266.405029296875,
        -130.19622802734375,
        -1486.683349609375
      ],
      "type": "VEC3"
    },
    {
      "bufferView": 2,
      "byteOffset": 7077540,
      "componentType": 5126,
      "count": 65533,
      "max": [
        0.9999997019767761,
        1.0,
        0.9999997615814209
      ],
      "min": [
        -0.9999997019767761,
        -1.0,
        -0.9999997019767761
      ],
      "type": "VEC3"
    },
    {
      "bufferView": 1,
      "byteOffset": 2097048,
      "componentType": 5126,
      "count": 65533,
      "max": [
        1.0000004768371582,
        1.0
      ],
      "min": [
        0.0,
        -3.4563211102067726e-06
      ],
      "type": "VEC2"
    },
    {
      "bufferView": 0,
      "byteOffset": 1610364,
      "componentType": 5125,
      "count": 70737,
      "type": "SCALAR"
    },
    {
      "bufferView": 2,
      "byteOffset": 7863936,
      "componentType": 5126,
      "count": 65532,
      "max": [
        506.5794677734375,
        3.1946005821228027,
        1927.3128662109375
      ],
      "min": [
        -2266.101806640625,
        -130.1960906982422,
        -2229.298583984375
      ],
      "type": "VEC3"
    },
    {
      "bufferView": 2,
      "byteOffset": 8650320,
      "componentType": 5126,
      "count": 65532,
      "max": [
        0.9999997019767761,
        1.0,
        0.9999997615814209
      ],
      "min": [
        -0.9999997019767761,
        -1.0,
        -0.9999997019767761
      ],
      "type": "VEC3"
    },
    {
      "bufferView": 1,
      "byteOffset": 2621312,
      "componentType": 5126,
      "count": 65532,
      "max": [
        1.0,
        1.0
      ],
      "min": [
        0.0,
        0.0
      ],
      "type": "VEC2"
    },
    {
      "bufferView": 0,
      "byteOffset": 1893312,
      "componentType": 5125,
      "count": 82326,
      "type": "SCALAR"
    },
    {
      "bufferView": 2,
      "byteOffset": 9436704,
      "componentType": 5126,
      "count": 65534,
      "max": [
        -49.337684631347656,
        117.47197723388672,
        1423.4200439453125
      ],
      "min": [
        -1848.5401611328125,
        -131.2261505126953,
        -1482.5458984375
      ],
      "type": "VEC3"
    },
    {
      "bufferView": 2,
      "byteOffset": 10223112,
      "componentType": 5126,
      "count": 65534,
      "max": [
        0.9999997019767761,
        1.0,
        0.9999997615814209
      ],
      "min": [
        -0.9999997019767761,
        -1.0,
        -0.9999997019767761
      ],
      "type": "VEC3"
    },
    {
      "bufferView": 1,
      "byteOffset": 3145568,
      "componentType": 5126,
      "count": 65534,
      "max": [
        1.0000022649765015,
        1.0000015497207642
      ],
      "min": [
        -1.6870046692929463e-06,
        -8.700989383214619e-06
      ],
      "type": "VEC2"
    },
    {
      "bufferView": 0,
      "byteOffset": 2222616,
      "componentType": 5125,
      "count": 99735,
      "type": "SCALAR"
    },
    {
      "bufferView": 2,
      "byteOffset": 11009520,
      "componentType": 5126,
      "count": 65533,
      "max": [
        175.4618377685547,
        51.82988357543945,
        1383.5166015625
      ],
      "min": [
        -236.36105346679688,
        -130.1960906982422,
        -2081.1708984375
      ],
      "type": "VEC3"
    },
    {
      "bufferView": 2,
      "byteOffset": 11795916,
      "componentType": 5126,
      "count": 65533,
      "max": [
        0.9999966621398926,
        1.0,
        0.9999995231628418
      ],
      "min": [
        -0.9999995231628418,
        -1.0,
        -0.9999995231628418
      ],
      "type": "VEC3"
    },
    {
      "bufferView": 1,
      "byteOffset": 3669840,
      "componentType": 5126,
      "count": 65533,
      "max": [
        1.0000022649765015,
        1.000003457069397
      ],
      "min": [
        -1.3264973404147895e-06,
        -8.700989383214619e-06
      ],
      "type": "VEC2"
    },
    {
      "bufferView": 0,
      "byteOffset": 2621556,
      "componentType": 5125,
      "count": 100248,
      "type": "SCALAR"
    },
    {
      "bufferView": 2,
      "byteOffset": 12582312,
      "componentType": 5126,
      "count": 65532,
      "max": [
        615.3394775390625,
        24.3538875579834,
        1829.0968017578125
      ],
      "min": [
        69.69779205322266,
        -127.05883026123047,
        -2229.298583984375
      ],
      "type": "VEC3"
    },
    {
      "bufferView": 2,
      "byteOffset": 13368696,
      "componentType": 5126,
      "count": 65532,
      "max": [
        0.9999916553497314,
        1.0,
        0.9999978542327881
      ],
      "min": [
        -0.9999765753746033,
        -1.0,
        -0.9999977350234985
      ],
      "type": "VEC3"
    },
    {
      "bufferView": 1,
      "byteOffset": 4194104,
      "componentType": 5126,
      "count": 65532,
      "max": [
        1.0000025033950806,
        1.0000026226043701
      ],
      "min": [
        -1.3799902944811038e-06,
        -4.885494490736164e-06
      ],
      "type": "VEC2"
    },
    {
      "bufferView": 0,
      "byteOffset": 3022548,
      "componentType": 5125,
      "count": 100122,
      "type": "SCALAR"
    },
    {
      "bufferView": 2,
      "byteOffset": 14155080,
      "componentType": 5126,
      "count": 65532,
      "max": [
        969.1818237304688,
        45.55428695678711,
        2147.60595703125
      ],
      "min": [
        482.62469482421875,
        -113.6943359375,
        -714.1302490234375
      ],
      "type": "VEC3"
    },
    {
      "bufferView": 2,
      "byteOffset": 14941464,
      "componentType": 5126,
      "count": 65532,
      "max": [
        0.9993612766265869,
        1.0,
        0.9999382495880127
      ],
      "min": [
        -0.9999765753746033,
        -1.0,
        -0.999630331993103
      ],
      "type": "VEC3"
    },
    {
      "bufferView": 1,
      "byteOffset": 4718360,
      "componentType": 5126,
      "count": 65532,
      "max": [
        1.0000029802322388,
        1.0000011920928955
      ],
      "min": [
        -1.0014341569331009e-06,
        -7.58464648242807e-06
      ],
      "type": "VEC2"
    },
    {
      "bufferView": 0,
      "byteOffset": 3423036,
      "componentType": 5125,
      "count": 98733,
      "type": "SCALAR"
    },
    {
      "bufferView": 2,
      "byteOffset": 15727848,
      "componentType": 5126,
      "count": 23562,
      "max": [
        1076.3426513671875,
        79.68685150146484,
        2217.740234375
      ],
      "min": [
        852.2978515625,
        -99.48600769042969,
        -778.1611328125
      ],
      "type": "VEC3"
    },
    {
      "bufferView": 2,
      "byteOffset": 16010592,
      "componentType": 5126,
      "count": 23562,
      "max": [
        0.9999533891677856,
        1.0,
        0.9989930391311646
      ],
      "min": [
        -0.9998564124107361,
        -1.0,
        -0.9999316930770874
      ],
      "type": "VEC3"
    },
    {
      "bufferView": 1,
      "byteOffset": 5242616,
      "componentType": 5126,
      "count": 23562,
      "max": [
        1.0,
        1.0
      ],
      "min": [
        -1.2970720320026885e-07,
        -1.1574434211070184e-06
      ],
      "type": "VEC2"
    },
    {
      "bufferView": 0,
      "byteOffset": 3817968,
      "componentType": 5125,
      "count": 35412,
      "type": "SCALAR"
    },
    {
      "bufferView": 2,
      "byteOffset": 16293336,
      "componentType": 5126,
      "count": 32646,
      "max": [
        3435.6103515625,
        131.76470947265625,
        4002.320556640625
      ],
      "min": [
        -4180.29345703125,
        -131.7647247314453,
        -3681.360595703125
      ],
      "type": "VEC3"
    },
    {
      "bufferView": 2,
      "byteOffset": 16685088,
      "componentType": 5126,
      "count": 32646,
      "max": [
        0.13248173892498016,
        1.0,
        0.5122153162956238
      ],
      "min": [
        -0.7665191888809204,
        0.3897706866264343,
        -0.15352961421012878
      ],
      "type": "VEC3"
    },
    {
      "bufferView": 1,
      "byteOffset": 5431112,
      "componentType": 5126,
      "count": 32646,
      "max": [
        2.9226956367492676,
        6.3592705726623535
      ],
      "min": [
        -1.2788212299346924,
        -1.5696923732757568
      ],
      "type": "VEC2"
    },
    {
      "bufferView": 1,
      "byteOffset": 5692280,
      "componentType": 5126,
      "count": 32646,
      "max": [
        297.97674560546875,
        1.0
      ],
      "min": [
        0.0,
        0.0
      ],
      "type": "VEC2"
    },
    {
      "bufferView": 1,
      "byteOffset": 5953448,
      "componentType": 5126,
      "count": 32646,
      "max": [
        298.0669860839844,
        0.0
      ],
      "min": [
        0.0,
        0.0
      ],
      "type": "VEC2"
    },
    {
      "bufferView": 0,
      "byteOffset": 3959616,
      "componentType": 5125,
      "count": 71841,
      "type": "SCALAR"
    },
    {
      "bufferView": 2,
      "byteOffset": 17076840,
      "componentType": 5126,
      "count": 60238,
      "max": [
        3437.60107421875,
        131.76470947265625,
        4004.308837890625
      ],
      "min": [
        -4182.49365234375,
        -131.7647247314453,
        -3683.50537109375
      ],
      "type": "VEC3"
    },
    {
      "bufferView": 2,
      "byteOffset": 17799696,
      "componentType": 5126,
      "count": 60238,
      "max": [
        0.13248103857040405,
        1.0,
        0.5122154951095581
      ],
      "min": [
        -0.7665236592292786,
        0.38977065682411194,
        -0.15352283418178558
      ],
      "type": "VEC3"
    },
    {
      "bufferView": 1,
      "byteOffset": 6214616,
      "componentType": 5126,
      "count": 60238,
      "max": [
        1.335761308670044,
        1.0005654096603394
      ],
      "min": [
        -0.23255087435245514,
        -0.08716025203466415
      ],
      "type": "VEC2"
    },
    {
      "bufferView": 0,
      "byteOffset": 4246980,
      "componentType": 5125,
      "count": 106551,
      "type": "SCALAR"
    },
    {
      "bufferView": 2,
      "byteOffset": 18522552,
      "componentType": 5126,
      "count": 4710,
      "max": [
        2233.519775390625,
        114.27825927734375,
        2148.393310546875
      ],
      "min": [
        -2266.648193359375,
        -131.1111602783203,
        -1663.6744384765625
      ],
      "type": "VEC3"
    },
    {
      "bufferView": 2,
      "byteOffset": 18579072,
      "componentType": 5126,
      "count": 4710,
      "max": [
        0.13956278562545776,
        1.0,
        0.13393273949623108
      ],
      "min": [
        -0.19808198511600494,
        0.9733273983001709,
        -0.030008936300873756
      ],
      "type": "VEC3"
    },
    {
      "bufferView": 1,
      "byteOffset": 6696520,
      "componentType": 5126,
      "count": 4710,
      "max": [
        1.000003457069397,
        1.0000100135803223
      ],
      "min": [
        -1.2927112038596533e-06,
        -3.313458137199632e-06
      ],
      "type": "VEC2"
    },
    {
      "bufferView": 0,
      "byteOffset": 4673184,
      "componentType": 5125,
      "count": 7404,
      "type": "SCALAR"
    }
  ],
  "asset": {
    "extras": {
      "author": "cyberpunk#3057 (https://sketchfab.com/bhaveshushetty2000)",
      "license": "CC-BY-4.0 (http://creativecommons.org/licenses/by/4.0/)",
      "source": "https://sketchfab.com/3d-models/lowpoly-city-free-974655237cfd41ad929b7525f8372d52",
      "title": "Lowpoly City Free"
    },
    "generator": "Sketchfab-12.64.0",
    "version": "2.0"
  },
  "bufferViews": [
    {
      "buffer": 0,
      "byteLength": 4702800,
      "name": "floatBufferViews",
      "target": 34963
    },
    {
      "buffer": 0,
      "byteLength": 6734200,
      "byteOffset": 4702800,
      "byteStride": 8,
      "name": "floatBufferViews",
      "target": 34962
    },
    {
      "buffer": 0,
      "byteLength": 18635592,
      "byteOffset": 11437000,
      "byteStride": 12,
      "name": "floatBufferViews",
      "target": 34962
    }
  ],
  "buffers": [
    {
      "byteLength": 30072592,
      "uri": "scene.bin"
    }
  ],
  "materials": [
    {
      "doubleSided": true,
      "name": "CityEngineMaterial_mat",
      "pbrMetallicRoughness": {
        "metallicFactor": 0.0,
        "roughnessFactor": 0.6
      }
    }
  ],
  "meshes": [
    {
      "name": "CityEngineMaterial_2_m_CityEngineMaterial_mat_0",
      "primitives": [
        {
          "attributes": {
            "NORMAL": 1,
            "POSITION": 0,
            "TEXCOORD_0": 2
          },
          "indices": 3,
          "material": 0,
          "mode": 4
        }
      ]
    },
    {
      "name": "CityEngineMaterial_2_m_CityEngineMaterial_mat_0",
      "primitives": [
        {
          "attributes": {
            "NORMAL": 5,
            "POSITION": 4,
            "TEXCOORD_0": 6
          },
          "indices": 7,
          "material": 0,
          "mode": 4
        }
      ]
    },
    {
      "name": "CityEngineMaterial_2_m_CityEngineMaterial_mat_0",
      "primitives": [
        {
          "attributes": {
            "NORMAL": 9,
            "POSITION": 8,
            "TEXCOORD_0": 10
          },
          "indices": 11,
          "material": 0,
          "mode": 4
        }
      ]
    },
    {
      "name": "CityEngineMaterial_2_m_CityEngineMaterial_mat_0",
      "primitives": [
        {
          "attributes": {
            "NORMAL": 13,
            "POSITION": 12,
            "TEXCOORD_0": 14
          },
          "indices": 15,
          "material": 0,
          "mode": 4
        }
      ]
    },
    {
      "name": "CityEngineMaterial_2_m_CityEngineMaterial_mat_0",
      "primitives": [
        {
          "attributes": {
            "NORMAL": 17,
            "POSITION": 16,
            "TEXCOORD_0": 18
          },
          "indices": 19,
          "material": 0,
          "mode": 4
        }
      ]
    },
    {
      "name": "CityEngineMaterial_2_m_CityEngineMaterial_mat_0",
      "primitives": [
        {
          "attributes": {
            "NORMAL": 21,
            "POSITION": 20,
            "TEXCOORD_0": 22
          },
          "indices": 23,
          "material": 0,
          "mode": 4
        }
      ]
    },
    {
      "name": "CityEngineMaterial_2_m_CityEngineMaterial_mat_0",
      "primitives": [
        {
          "attributes": {
            "NORMAL": 25,
            "POSITION": 24,
            "TEXCOORD_0": 26
          },
          "indices": 27,
          "material": 0,
          "mode": 4
        }
      ]
    },
    {
      "name": "CityEngineMaterial_2_m_CityEngineMaterial_mat_0",
      "primitives": [
        {
          "attributes": {
            "NORMAL": 29,
            "POSITION": 28,
            "TEXCOORD_0": 30
          },
          "indices": 31,
          "material": 0,
          "mode": 4
        }
      ]
    },
    {
      "name": "CityEngineMaterial_2_m_CityEngineMaterial_mat_0",
      "primitives": [
        {
          "attributes": {
            "NORMAL": 33,
            "POSITION": 32,
            "TEXCOORD_0": 34
          },
          "indices": 35,
          "material": 0,
          "mode": 4
        }
      ]
    },
    {
      "name": "CityEngineMaterial_2_m_CityEngineMaterial_mat_0",
      "primitives": [
        {
          "attributes": {
            "NORMAL": 37,
            "POSITION": 36,
            "TEXCOORD_0": 38
          },
          "indices": 39,
          "material": 0,
          "mode": 4
        }
      ]
    },
    {
      "name": "CityEngineMaterial_2_m_CityEngineMaterial_mat_0",
      "primitives": [
        {
          "attributes": {
            "NORMAL": 41,
            "POSITION": 40,
            "TEXCOORD_0": 42
          },
          "indices": 43,
          "material": 0,
          "mode": 4
        }
      ]
    },
    {
      "name": "CityEngineMaterial_m_CityEngineMaterial_mat_0",
      "primitives": [
        {
          "attributes": {
            "NORMAL": 45,
            "POSITION": 44,
            "TEXCOORD_0": 46,
            "TEXCOORD_1": 47,
            "TEXCOORD_2": 48
          },
          "indices": 49,
          "material": 0,
          "mode": 4
        }
      ]
    },
    {
      "name": "CityEngineMaterial_1_m_CityEngineMaterial_mat_0",
      "primitives": [
        {
          "attributes": {
            "NORMAL": 51,
            "POSITION": 50,
            "TEXCOORD_0": 52
          },
          "indices": 53,
          "material": 0,
          "mode": 4
        }
      ]
    },
    {
      "name": "CityEngineMaterial_3_m_CityEngineMaterial_mat_0",
      "primitives": [
        {
          "attributes": {
            "NORMAL": 55,
            "POSITION": 54,
            "TEXCOORD_0": 56
          },
          "indices": 57,
          "material": 0,
          "mode": 4
        }
      ]
    }
  ],
  "nodes": [
    {
      "children": [
        1
      ],
      "matrix": [
        1.0,
        0.0,
        0.0,
        0.0,
        0.0,
        2.220446049250313e-16,
        -1.0,
        0.0,
        0.0,
        1.0,
        2.220446049250313e-16,
        0.0,
        0.0,
        0.0,
        0.0,
        1.0
      ],
      "name": "Sketchfab_model"
    },
    {
      "children": [
        2
      ],
      "matrix": [
        1.0,
        0.0,
        0.0,
        0.0,
        0.0,
        0.0,
        1.0,
        0.0,
        0.0,
        -1.0,
        0.0,
        0.0,
        0.0,
        0.0,
        0.0,
        1.0
      ],
      "name": "36c565f637bf498abeb4c329bef91091.fbx"
    },
    {
      "children": [
        3
      ],
      "name": "RootNode"
    },
    {
      "children": [
        4,
        16,
        18,
        20
      ],
      "name": "node"
    },
    {
      "children": [
        5,
        6,
        7,
        8,
        9,
        10,
        11,
        12,
        13,
        14,
        15
      ],
      "name": "CityEngineMaterial_2_m"
    },
    {
      "mesh": 0,
      "name": "CityEngineMaterial_2_m_CityEngineMaterial_mat_0"
    },
    {
      "mesh": 1,
      "name": "CityEngineMaterial_2_m_CityEngineMaterial_mat_0"
    },
    {
      "mesh": 2,
      "name": "CityEngineMaterial_2_m_CityEngineMaterial_mat_0"
    },
    {
      "mesh": 3,
      "name": "CityEngineMaterial_2_m_CityEngineMaterial_mat_0"
    },
    {
      "mesh": 4,
      "name": "CityEngineMaterial_2_m_CityEngineMaterial_mat_0"
    },
    {
      "mesh": 5,
      "name": "CityEngineMaterial_2_m_CityEngineMaterial_mat_0"
    },
    {
      "mesh": 6,
      "name": "CityEngineMaterial_2_m_CityEngineMaterial_mat_0"
    },
    {
      "mesh": 7,
      "name": "CityEngineMaterial_2_m_CityEngineMaterial_mat_0"
    },
    {
      "mesh": 8,
      "name": "CityEngineMaterial_2_m_CityEngineMaterial_mat_0"
    },
    {
      "mesh": 9,
      "name": "CityEngineMaterial_2_m_CityEngineMaterial_mat_0"
    },
    {
      "mesh": 10,
      "name": "CityEngineMaterial_2_m_CityEngineMaterial_mat_0"
    },
    {
      "children": [
        17
      ],
      "name": "CityEngineMaterial_m"
    },
    {
      "mesh": 11,
      "name": "CityEngineMaterial_m_CityEngineMaterial_mat_0"
    },
    {
      "children": [
        19
      ],
      "name": "CityEngineMaterial_1_m"
    },
    {
      "mesh": 12,
      "name": "CityEngineMaterial_1_m_CityEngineMaterial_mat_0"
    },
    {
      "children": [
        21
      ],
      "name": "CityEngineMaterial_3_m"
    },
    {
      "mesh": 13,
      "name": "CityEngineMaterial_3_m_CityEngineMaterial_mat_0"
    }
  ],
  "scene": 0,
  "scenes": [
    {
      "name": "Sketchfab_Scene",
      "nodes": [
        0
      ]
    }
  ]
}
